<svg width="39" height="38" viewBox="0 0 39 38" fill="none" xmlns="http://www.w3.org/2000/svg">
    <path d="M36.6 0H2.4C1.35066 0 0.5 0.850659 0.5 1.9V36.1C0.5 37.1493 1.35066 38 2.4 38H36.6C37.6493 38 38.5 37.1493 38.5 36.1V1.9C38.5 0.850659 37.6493 0 36.6 0Z" fill="white"/>
    <path fill-rule="evenodd" clip-rule="evenodd" d="M27.708 19.1944C27.708 18.5881 27.6536 18.0051 27.5525 17.4455H19.5V20.7528H24.1015C23.9033 21.8215 23.3009 22.7271 22.3953 23.3333V25.4786H25.1585C26.7753 23.9901 27.708 21.7982 27.708 19.1944Z" fill="#4285F4"/>
    <path fill-rule="evenodd" clip-rule="evenodd" d="M19.5004 27.5501C21.8089 27.5501 23.7443 26.7845 25.159 25.4787L22.3958 23.3334C21.6302 23.8464 20.6508 24.1496 19.5004 24.1496C17.2735 24.1496 15.3887 22.6455 14.7163 20.6246H11.8598V22.8399C13.2667 25.6342 16.1582 27.5501 19.5004 27.5501Z" fill="#34A853"/>
    <path fill-rule="evenodd" clip-rule="evenodd" d="M14.7164 20.6246C14.5454 20.1116 14.4483 19.5636 14.4483 19.0001C14.4483 18.4365 14.5454 17.8886 14.7164 17.3756V15.1603H11.8599C11.2809 16.3146 10.9505 17.6204 10.9505 19.0001C10.9505 20.3797 11.2809 21.6855 11.8599 22.8398L14.7164 20.6246Z" fill="#FBBC05"/>
    <path fill-rule="evenodd" clip-rule="evenodd" d="M19.5004 13.8505C20.7557 13.8505 21.8828 14.2818 22.7689 15.1291L25.2212 12.6768C23.7405 11.2971 21.805 10.4499 19.5004 10.4499C16.1582 10.4499 13.2667 12.3659 11.8598 15.1602L14.7163 17.3754C15.3887 15.3545 17.2735 13.8505 19.5004 13.8505Z" fill="#EA4335"/>
</svg>
