<svg width="20" height="19" viewBox="0 0 20 19" fill="none" xmlns="http://www.w3.org/2000/svg">
    <g clip-path="url(#clip0)">
        <path d="M19.5 9.5C19.5 14.7473 15.2473 19 10 19C4.75273 19 0.5 14.7473 0.5 9.5C0.5 4.25273 4.75273 0 10 0C15.2473 0 19.5 4.25273 19.5 9.5Z" fill="white"/>
        <path d="M6.90505 13.8196H5.76208V5.87073H6.90505V9.46291V13.8196Z" fill="#A6CE39"/>
        <path d="M8.5824 5.87073H11.6699C14.609 5.87073 15.9004 7.97112 15.9004 9.84885C15.9004 11.8899 14.3047 13.827 11.6847 13.827H8.5824V5.87073ZM9.72537 12.7953H11.5437C14.134 12.7953 14.7277 10.8285 14.7277 9.84885C14.7277 8.25315 13.7109 6.90237 11.4843 6.90237H9.72537V12.7953Z" fill="#A6CE39"/>
        <path d="M7.0832 4.21567C7.0832 4.62388 6.74922 4.96529 6.33359 4.96529C5.91797 4.96529 5.58398 4.62388 5.58398 4.21567C5.58398 3.80005 5.91797 3.46606 6.33359 3.46606C6.74922 3.46606 7.0832 3.80747 7.0832 4.21567Z" fill="#A6CE39"/>
    </g>
    <defs>
        <clipPath id="clip0">
            <rect width="19" height="19" fill="white" transform="translate(0.5)"/>
        </clipPath>
    </defs>
</svg>
